<?xml version="1.0" encoding="utf-8"?>
<!-- Generator: Adobe Illustrator 25.4.1, SVG Export Plug-In . SVG Version: 6.00 Build 0)  -->
<svg version="1.1" xmlns="http://www.w3.org/2000/svg" xmlns:xlink="http://www.w3.org/1999/xlink" x="0px" y="0px"
	 viewBox="0 0 612 792" style="enable-background:new 0 0 612 792;" xml:space="preserve">
<style type="text/css">
	.st0{fill:#FEFEFE;}
	.st1{fill:#040404;}
	.st2{fill:#BEBEBE;}
	.st3{fill:#323233;}
	.st4{fill:#686868;}
	.st5{fill:#4B4A4E;}
	.st6{fill:#848387;}
	.st7{fill:#767579;}
	.st8{fill:#86E2E5;}
	.st9{fill:#ADFEEE;}
</style>
<g id="Layer_1">
	<g>
		<g>
			<path class="st0" d="M612,641.1c-204,0-408,0-612,0c0-169.91,0-339.83,0-509.74c204,0,408,0,612,0
				C612,301.27,612,471.18,612,641.1z M151.18,244.54c-5.95-0.3-10.51,3.73-14.12,9.53c-0.72,1.16-2.33,2.06-3.71,2.49
				c-6.7,2.08-13.57,3.64-20.14,6.06c-3.08,1.14-6.12,3.36-8.29,5.85c-10.82,12.43-18.33,26.66-22.06,42.78
				c-0.37,1.6-0.59,3.36-1.43,4.71c-4.48,7.23-5.71,15.28-5.91,23.49c-0.45,17.51-0.85,35.02-0.87,52.53
				c-0.03,39.62-1.12,79.29,3.84,118.74c1.06,8.44,1.79,17.09,7.58,24.12c7.19,8.73,16,15.08,26.98,17.98
				c12.37,3.27,24.9,2.46,37.29,0.17c3.28-0.61,6.42-2.76,9.29-4.7c4.19-2.83,7.99-5.17,13.68-5.03c21,0.5,42.02,0.41,63.03,0.07
				c5.92-0.1,9.73,1.51,13.95,6.02c23.54,25.16,53.17,38.24,87.35,40.03c43.87,2.29,79.52-15.2,108.5-47.45
				c1.04-1.15,2.86-2.05,4.41-2.23c14.1-1.63,28.29-2.6,42.32-4.7c17.88-2.69,27.44-12.19,30.89-29.87c1.37-7,2.14-14.16,2.72-21.28
				c3.64-44.86,5.78-89.79,4.37-134.81c-0.49-15.58-1.5-31.13-5.73-46.27c-6-21.51-18.41-37.23-40-45
				c-6.83-2.46-13.36-5.73-20.06-8.56c-18.73-7.9-33.89-19.28-42.19-38.85c-5.27-12.42-15.3-20.44-28.59-24.25
				c-3.7-1.06-6.77-3.62-7.71-8.05c-0.86-4.06-3.96-6.19-7.9-6.85c-5.26-0.88-10.14,0.66-14.77,2.98c-1.04,0.52-1.63,1.88-2.55,2.72
				c-0.89,0.81-1.93,2.04-2.91,2.05c-9.73,0.1-19.47,0-29.21-0.1c-0.97-0.01-2.43-0.07-2.82-0.66c-3.43-5.21-9.01-5.56-14.25-6.09
				c-7.99-0.8-10.53,1.48-11.68,9.52c-0.37,2.58-1.34,4-4.21,4.49c-11.09,1.88-19.95,7.4-26.54,16.64
				c-4.23,5.93-8.82,11.61-13.33,17.33c-4.38,5.55-9.61,10.04-16.63,12.77c-0.81-5-4.38-6.74-8.4-8.18
				c-10.45-3.76-21.13-3.31-31.86-2c-15.16,1.86-29.56,5.97-42.17,14.94C155.24,239.13,153.8,241.55,151.18,244.54z M542.24,408.21
				c0.13,0.04,0.26,0.07,0.38,0.11c0-21.17,0-42.35,0-63.52c-0.13,0-0.26,0-0.38,0C542.24,365.93,542.24,387.07,542.24,408.21z
				 M63.25,402.88c0.13,0.03,0.26,0.07,0.38,0.1c0-12.97,0-25.94,0-38.91c-0.13,0-0.26,0-0.38,0
				C63.25,377.01,63.25,389.95,63.25,402.88z M63.24,462.19c0.11,0,0.22,0,0.32,0c0-11.18,0-22.36,0-33.55c-0.11,0-0.22,0-0.32,0
				C63.24,439.83,63.24,451.01,63.24,462.19z M353.6,166.52c-0.01-0.12-0.02-0.24-0.03-0.37c-7.09,0-14.18,0-21.26,0
				c0,0.12,0,0.24,0.01,0.37C339.4,166.52,346.5,166.52,353.6,166.52z M121.7,564.45c-0.05,0.13-0.1,0.25-0.15,0.38
				c6.56,0,13.11,0,19.67,0c0-0.13,0-0.25-0.01-0.38C134.7,564.45,128.2,564.45,121.7,564.45z M64.39,335.75
				c-0.13-0.01-0.26-0.01-0.38-0.02c0,6.33,0,12.67,0,19c0.13,0,0.26,0,0.38,0C64.39,348.4,64.39,342.07,64.39,335.75z"/>
			<path class="st1" d="M151.18,244.54c2.62-2.98,4.06-5.4,6.17-6.9c12.61-8.96,27.01-13.08,42.17-14.94
				c10.74-1.32,21.42-1.77,31.86,2c4.02,1.45,7.58,3.19,8.4,8.18c7.01-2.73,12.25-7.22,16.63-12.77c4.52-5.72,9.1-11.4,13.33-17.33
				c6.6-9.24,15.45-14.76,26.54-16.64c2.87-0.49,3.83-1.91,4.21-4.49c1.16-8.04,3.7-10.32,11.68-9.52
				c5.23,0.53,10.82,0.87,14.25,6.09c0.39,0.59,1.85,0.65,2.82,0.66c9.74,0.1,19.47,0.2,29.21,0.1c0.98-0.01,2.02-1.24,2.91-2.05
				c0.92-0.84,1.51-2.2,2.55-2.72c4.63-2.32,9.51-3.87,14.77-2.98c3.94,0.66,7.04,2.8,7.9,6.85c0.94,4.42,4.01,6.98,7.71,8.05
				c13.29,3.82,23.32,11.84,28.59,24.25c8.3,19.57,23.46,30.95,42.19,38.85c6.7,2.83,13.23,6.1,20.06,8.56
				c21.59,7.77,34,23.49,40,45c4.22,15.14,5.24,30.69,5.73,46.27c1.41,45.03-0.73,89.95-4.37,134.81
				c-0.58,7.12-1.35,14.27-2.72,21.28c-3.46,17.68-13.01,27.18-30.89,29.87c-14.02,2.11-28.22,3.07-42.32,4.7
				c-1.55,0.18-3.38,1.07-4.41,2.23c-28.98,32.25-64.63,49.74-108.5,47.45c-34.18-1.79-63.81-14.87-87.35-40.03
				c-4.21-4.51-8.03-6.12-13.95-6.02c-21.01,0.34-42.03,0.43-63.03-0.07c-5.69-0.14-9.49,2.2-13.68,5.03c-2.87,1.94-6,4.09-9.29,4.7
				c-12.39,2.29-24.92,3.1-37.29-0.17c-10.99-2.9-19.8-9.26-26.98-17.98c-5.8-7.04-6.52-15.68-7.58-24.12
				c-4.96-39.45-3.87-79.12-3.84-118.74c0.01-17.51,0.42-35.02,0.87-52.53c0.21-8.21,1.43-16.27,5.91-23.49
				c0.84-1.35,1.06-3.11,1.43-4.71c3.74-16.12,11.25-30.35,22.06-42.78c2.17-2.5,5.2-4.71,8.29-5.85
				c6.56-2.42,13.44-3.98,20.14-6.06c1.38-0.43,2.99-1.33,3.71-2.49C140.67,248.27,145.23,244.24,151.18,244.54z M98.31,302.93
				c-0.5,0.95-1.17,1.86-1.48,2.87c-1.82,5.81-3.56,11.65-5.33,17.48c-1.27,4.33-3.46,8.62-3.65,13
				c-0.87,19.89-1.58,39.81-1.57,59.71c0.02,25.02,0.52,50.05,1.35,75.05c0.46,13.87,2,27.7,3.13,41.54
				c0.91,11.19,6.54,19.19,16.31,24.75c10.35,5.89,21.44,6.08,32.75,5.18c5.5-0.44,11.53-0.88,15.07-5.41
				c3.68-4.7,8.32-5.39,13.41-5.94c21.88,0.06,43.75,0.13,65.63,0.17c4.6,0.01,9.2-0.15,13.8-0.22c2.26,1.53,4.75,2.81,6.74,4.63
				c6.93,6.38,12.99,13.94,20.63,19.28c30.66,21.44,64.41,28.57,100.86,18.37c24.28-6.79,44.34-20.58,61.02-39.42
				c2.05-2.31,4.86-3.96,7.31-5.91c1.51-0.19,3.01-0.43,4.52-0.58c13.43-1.3,26.87-2.45,40.28-3.92
				c14.28-1.57,22.39-10.01,23.68-24.14c1.26-13.8,2.84-27.57,3.75-41.39c1.09-16.65,1.85-33.32,2.32-50
				c0.38-13.16,0.12-26.34,0.12-39.51c0-1.19-0.18-2.39-0.25-3.3c-8.66,1-16.88,1.71-25.01,2.98c-6.54,1.02-13.06-2.73-14.61-9.21
				c-2.46-10.26-4.71-20.57-7.33-30.79c-0.89-3.47,0.06-5.15,3.44-5.68c9.91-1.54,19.83-3.07,29.74-4.6
				c3.58-0.55,7.17-1.09,11.01-1.67c-0.91-3.79-1.55-7.03-2.46-10.19c-4.6-15.97-13.54-28.49-29.01-35.61
				c-12.42-5.71-25.07-10.93-37.32-16.98c-5.77-2.85-11.04-6.88-16.15-10.86c-7.98-6.22-12.52-14.98-16.8-23.92
				c-4.11-8.59-9.68-16.21-18.98-19.56c-5.42-1.95-10.84-3.44-14.79-7.94c-2.2-2.43-4.41-4.86-6.88-7.58c-1.45,2-3.19,4.4-4.94,6.81
				c-4.55,0.25-9.11,0.75-13.65,0.71c-11.94-0.11-23.87-0.45-35.81-0.71c-2-2.31-4-4.62-6.6-7.62c-0.74,3.89-1.24,6.5-1.73,9.1
				c-0.87,0.42-1.74,0.83-2.6,1.26c-3.35,1.64-6.55,4.07-10.08,4.75c-7.62,1.47-13.29,5.47-18.04,11.27
				c-7.09,8.65-14.25,17.23-21.34,25.87c-0.53,0.65-0.81,1.5-1.2,2.26c-1.01,0.35-2.09,0.59-3.03,1.08
				c-4.5,2.36-8.86,5.02-13.48,7.13c-6.32,2.88-8.42,1.87-11.05-4.53c-0.51-5.34-4.65-6.23-8.74-6.75
				c-18.52-2.34-35.72,2.35-52.35,9.99c-2.91,1.34-4.39,3.43-5.13,6.54c-0.43,1.82-1.96,3.38-3,5.06c-1.5,0.2-2.99,0.55-4.49,0.59
				c-7.19,0.19-7.18,0.41-10.24,6.87c-0.86,1.81-3.3,3.42-5.34,4.01c-5.99,1.74-12.13,2.97-18.24,4.31
				c-7.47,1.64-11.4,7.15-14.81,13.27C104.55,290.92,101.43,296.92,98.31,302.93z M474.04,325.84c2.98,11.79,5.78,23.11,8.76,34.38
				c0.31,1.18,1.55,2.22,2.57,3.08c3.54,2.95,7.63,2.05,11.67,1.48c7.24-1.01,14.49-1.98,22.25-3.03
				c-0.49-10.41-0.88-20.05-1.43-29.69c-0.2-3.41-0.83-6.8-1.21-10.2c-0.22-1.97-1.08-2.44-3.1-2.13
				c-6.77,1.06-13.59,1.76-20.36,2.79C486.95,323.46,480.75,324.66,474.04,325.84z"/>
			<path class="st2" d="M542.24,408.21c0-21.14,0-42.28,0-63.41c0.13,0,0.26,0,0.38,0c0,21.17,0,42.35,0,63.52
				C542.5,408.28,542.37,408.25,542.24,408.21z"/>
			<path class="st2" d="M63.25,402.88c0-12.94,0-25.87,0-38.81c0.13,0,0.26,0,0.38,0c0,12.97,0,25.94,0,38.91
				C63.51,402.95,63.38,402.92,63.25,402.88z"/>
			<path class="st2" d="M63.24,462.19c0-11.18,0-22.36,0-33.55c0.11,0,0.22,0,0.32,0c0,11.18,0,22.36,0,33.55
				C63.46,462.19,63.35,462.19,63.24,462.19z"/>
			<path class="st2" d="M353.6,166.52c-7.1,0-14.19,0-21.29,0c0-0.12,0-0.24-0.01-0.37c7.09,0,14.18,0,21.26,0
				C353.57,166.27,353.58,166.4,353.6,166.52z"/>
			<path class="st2" d="M121.7,564.45c6.5,0,13.01,0,19.51,0c0,0.13,0,0.25,0.01,0.38c-6.56,0-13.11,0-19.67,0
				C121.59,564.7,121.65,564.57,121.7,564.45z"/>
			<path class="st2" d="M64.39,335.75c0,6.33,0,12.66,0,18.98c-0.13,0-0.26,0-0.38,0c0-6.33,0-12.67,0-19
				C64.14,335.73,64.26,335.74,64.39,335.75z"/>
			<path class="st3" d="M247.73,531.1c-4.6,0.08-9.2,0.23-13.8,0.22c-21.88-0.03-43.75-0.11-65.63-0.17c0-2.12,0-4.25,0-6.76
				c-2.71,0.23-4.91,0.42-7.72,0.66c0.3-2.57,0.74-4.78,0.8-6.99c0.32-13.27,0.78-26.54,0.75-39.8c-0.06-24.01-0.3-48.02-0.73-72.03
				c-0.19-11.07-0.86-22.14-1.58-33.19c-0.3-4.6-1.02-9.31-6.44-11.12c-13.34-4.44-27.01-7.37-41-8.77
				c0.13-0.83,0.26-1.65,0.38-2.48c22.6-1.29,45.55,0.17,67.33-7.56c-0.03-0.44-0.07-0.87-0.1-1.31c-3.59,0-7.19,0-11.89,0
				c3.37-1.68,5.91-2.59,8.01-4.1c1.51-1.09,3.65-3.18,3.43-4.48c-0.99-5.95-2.72-11.77-4.18-17.64c-0.28-0.96-0.91-1.96-0.79-2.86
				c0.57-4.34-1.4-7.47-4.71-9.79c-4.77-3.34-9.71-6.42-14.58-9.61c2.36,0,4.73,0,7.54,0c-8.29-7.06-22.57-9.15-32.14-2.38
				c-1.51,0.54-3.02,1.08-4.54,1.62c-2.72-4.04-0.72-6.37,2.89-8.25c1.2-0.63,2.23-1.6,3.34-2.41c5.25-0.78,10.49-1.89,15.77-2.25
				c5.81-0.39,11.69,0.21,17.5-0.14c19.02-1.16,37.85-3.78,56.31-8.59c13.54-3.53,26.61-8.17,37.89-16.88
				c2.28-1.76,2.54-3.24,0.84-5.32c-2.73-3.34-4.04-7.06-3.12-11.39c0.39-0.76,0.67-1.61,1.2-2.26c7.1-8.64,14.26-17.23,21.34-25.87
				c4.75-5.8,10.42-9.8,18.04-11.27c3.54-0.68,6.73-3.11,10.08-4.75c0.87-0.42,1.73-0.84,2.6-1.26c2.78-0.49,5.55-0.99,8.33-1.48
				c11.94,0.25,23.87,0.6,35.81,0.71c4.55,0.04,9.1-0.46,13.65-0.71c3.94,0.26,7.88,0.51,11.82,0.77c3.94,4.5,9.36,5.99,14.79,7.94
				c9.3,3.35,14.87,10.97,18.98,19.56c4.28,8.94,8.82,17.7,16.8,23.92c5.11,3.98,10.38,8,16.15,10.86
				c12.24,6.05,24.9,11.27,37.32,16.98c15.46,7.12,24.41,19.64,29.01,35.61c0.91,3.16,1.55,6.4,2.46,10.19
				c-3.84,0.58-7.43,1.12-11.01,1.67c-9.91,1.53-19.83,3.06-29.74,4.6c-3.38,0.53-4.33,2.21-3.44,5.68
				c2.61,10.22,4.86,20.53,7.33,30.79c1.56,6.48,8.08,10.23,14.61,9.21c8.13-1.27,16.35-1.97,25.01-2.98
				c0.07,0.91,0.25,2.11,0.25,3.3c0,13.17,0.26,26.35-0.12,39.51c-0.48,16.68-1.23,33.35-2.32,50c-0.91,13.82-2.48,27.59-3.75,41.39
				c-1.29,14.13-9.4,22.57-23.68,24.14c-13.41,1.47-26.85,2.62-40.28,3.92c-1.51,0.15-3.02,0.38-4.52,0.58
				c11.88-20.42,18.69-42.16,16.17-66.01c-0.93-8.81-2.25-17.75-4.9-26.16c-6.47-20.55-18.32-37.69-34.92-51.62
				c-19.56-16.41-42.19-25.29-67.42-27.04c-23.3-1.61-45.45,3.25-65.91,14.91c-24.38,13.9-41.59,33.93-51.33,60.21
				c-5.93,16-8.07,32.66-5.88,49.58c1.06,8.24,3.07,16.52,5.92,24.32C239.16,514.81,243.76,522.84,247.73,531.1z M363.7,246.46
				c-0.35-0.08-0.74-0.3-1.03-0.2c-3.97,1.31-5.67,4.5-4.47,8.34c1.17,3.77,5.25,5.71,9.67,4.6c4.48-1.12,6.46-4.15,5.26-8.1
				c-1.24-4.09-5.28-6.05-9.48-4.6L363.7,246.46z M472.88,426.97c-0.01,0.4-0.01,0.79-0.02,1.19c0.08,1.3,0.15,2.61,0.23,3.99
				c9.68-2.44,19.65-12.28,22.04-21.36c3.47-5.91,4.31-12.32,2.93-18.89c-1.95-9.31-11.11-18.19-17.52-18.73
				c-2.34-0.6-4.76-1.92-6.99-1.65c-6.44,0.79-10.52,7.77-8.67,14.05c1.12,3.79,2.29,7.56,3.43,11.33
				c1.13,6.69,2.32,13.38,3.38,20.08C472.21,420.29,472.49,423.64,472.88,426.97z M331.08,250.64c-3.63-0.35-6.8-0.48-9.3,3.43
				c-1.21,1.89-4.65,2.81-7.24,3.25c-2.9,0.49-6.09-0.75-6.68-3.83c-0.42-2.17,0.38-5.21,1.78-6.94c2-2.47,5.12-2.08,8.05-0.66
				c-0.68,1.29-1.23,2.34-2.33,4.45c2.92-1.3,4.81-2.15,6.7-2.99c-2.2-4.9-11.54-5.79-16.51-3.81c-3.43,1.36-5.91,3.5-5.81,7.65
				c0.11,4.05,2.41,6.47,5.96,7.56c5.78,1.78,11.34,1.42,16.13-2.85c2.87,3.7,5.55,4.41,10.04,2.73c0.83-0.31,1.8-0.67,2.62-0.51
				c1.9,0.36,3.74,1.02,6.4,1.78c-1.34-4.29-2.37-7.42-3.29-10.58c-0.88-3.01-3.02-4.09-5.86-3.66c-2.07,0.31-4.06,1.15-6.21,1.8
				c1.78,2.12,5.43-1.29,6.02,2.71C331.4,250.32,331.24,250.48,331.08,250.64z M277.22,248.96c-3.3,4.46-5.77,8.15-8.59,11.54
				c-4.34,5.22-2.23,10.54,4.69,12.13c19.49,4.5,39.34,5.05,59.14,5.98c8.52,0.4,17.09-0.25,25.63-0.66
				c19.34-0.94,38.66-2.42,58.01-2.86c7.43-0.17,12.1-2.37,14.13-9.53c0.07-0.24,0.33-0.47,0.32-0.69
				c-0.08-1.52,0.39-3.57-0.41-4.47c-5.77-6.44-11.79-12.65-17.76-18.91c-0.08-0.09-0.45,0.09-0.76,0.17
				c0.43,4,0.75,8.01,1.32,11.99c0.56,3.95-1.25,5.61-4.98,5.95c-10.5,0.97-20.99,2.79-31.5,2.88c-24.8,0.22-49.61-0.24-74.41-0.69
				c-5.94-0.11-11.92-0.95-17.79-1.98C277.17,258.56,276.2,256.93,277.22,248.96z M452.97,367.55
				c-12.19-28.32-48.98-63.17-98.46-66.47c-52.23-3.48-92.73,28.31-109.16,58.16c27.06-34.28,62.08-52.19,106.04-50.5
				C395.42,310.43,428.64,331.47,452.97,367.55z M206.76,314.04c-8.8-0.64-13.53,6.02-13.71,13.92
				c-0.19,8.72,5.66,15.24,13.22,15.29c8.5,0.05,15.89-6.34,15.94-13.76C222.27,320.73,215.62,314.08,206.76,314.04z M390.53,258.79
				c0-3.22,0.04-6.26-0.01-9.3c-0.06-3.61-1.28-4.41-4.85-3.4c-1.17,0.33-2.86,1.12-3.51,0.63c-3.03-2.26-5.25-0.29-7.76,0.85
				c4.32,3.06,0.79,7.71,2.58,11.29c1.57,0.11,3.19,0.22,5.02,0.35c0.27-3.63,0.53-7.1,0.78-10.56c0.51,0.04,1.02,0.09,1.53,0.13
				c0.2,3.33,0.4,6.65,0.6,10C386.9,258.79,388.52,258.79,390.53,258.79z M348.27,248.79c0.59-0.05,1.17-0.1,1.76-0.15
				c0.21,3.39,0.41,6.78,0.61,10.13c1.92,0,3.51,0,5.4,0c0-3.38-0.09-6.56,0.02-9.72c0.11-3.13-1.55-3.75-4.15-3.17
				c-1.34,0.3-3.25,1.49-3.88,0.99c-3.13-2.49-5.44-0.49-7.91,0.67c3.99,3.18,0.61,7.8,2.54,11.45c1.61,0,3.33,0,5.61,0
				C348.27,255.43,348.27,252.11,348.27,248.79z M456.64,372.84c-0.17-0.27-0.35-0.57-0.53-0.86c-0.23,0.2-0.46,0.41-0.69,0.61
				c0.24,0.26,0.47,0.52,0.71,0.78C456.28,373.22,456.42,373.06,456.64,372.84z"/>
			<path class="st4" d="M247.73,531.1c-3.97-8.27-8.57-16.3-11.71-24.87c-2.86-7.8-4.86-16.08-5.92-24.32
				c-2.18-16.91-0.05-33.57,5.88-49.58c9.73-26.27,26.94-46.31,51.33-60.21c20.46-11.66,42.61-16.52,65.91-14.91
				c25.23,1.75,47.86,10.63,67.42,27.04c16.6,13.93,28.45,31.08,34.92,51.62c2.65,8.41,3.97,17.36,4.9,26.16
				c2.52,23.85-4.29,45.59-16.17,66.01c-2.46,1.95-5.26,3.6-7.31,5.91c-16.68,18.83-36.74,32.62-61.02,39.42
				c-36.45,10.2-70.19,3.07-100.86-18.37c-7.64-5.34-13.7-12.9-20.63-19.28C252.48,533.91,249.99,532.63,247.73,531.1z
				 M345.28,543.61c38.95,0.8,76.39-30.34,76.4-75.73c0.01-44.08-34.96-76.14-76.15-76.09c-41.72,0.05-76.18,32.7-76.02,76.23
				C269.68,513.58,307.08,544.11,345.28,543.61z"/>
			<path class="st5" d="M112.38,353.16c14,1.39,27.66,4.33,41,8.77c5.42,1.8,6.14,6.52,6.44,11.12c0.72,11.05,1.38,22.12,1.58,33.19
				c0.42,24.01,0.67,48.02,0.73,72.03c0.03,13.27-0.43,26.54-0.75,39.8c-0.05,2.21-0.49,4.42-0.8,6.99
				c2.82-0.24,5.01-0.43,7.72-0.66c0,2.51,0,4.64,0,6.76c-5.09,0.55-9.74,1.25-13.41,5.94c-3.54,4.52-9.57,4.97-15.07,5.41
				c-11.32,0.91-22.4,0.72-32.75-5.18c-9.77-5.56-15.4-13.56-16.31-24.75c-1.13-13.84-2.66-27.67-3.13-41.54
				c-0.84-25.01-1.34-50.03-1.35-75.05c-0.01-19.91,0.7-39.82,1.57-59.71c0.19-4.38,2.38-8.67,3.65-13
				c0.39,0.32,0.99,0.56,1.13,0.96c3.42,10.01,10.98,13.49,20.83,12.79c11.26-0.81,22.5-2,33.74-3.06
				c12.61-1.19,22.6-6.4,28.15-18.37c1.46,5.87,3.18,11.7,4.18,17.64c0.22,1.3-1.92,3.39-3.43,4.48c-2.1,1.51-4.63,2.42-8.01,4.1
				c4.7,0,8.3,0,11.89,0c0.03,0.44,0.07,0.87,0.1,1.31c-21.78,7.73-44.73,6.27-67.32,7.56c0-1.59,0-3.19,0-4.65
				c-5.44-0.55-10.54-0.83-15.53-1.69c-2.5-0.43-3.33,0.26-3.51,2.49c-0.46,5.57-1.25,11.14-1.31,16.72c-0.2,17-0.24,34-0.11,51.01
				c0.12,15.06,0.29,30.13,0.9,45.18c0.72,17.81,2.04,35.6,2.89,53.42c0.4,8.42,7.88,14.86,17.12,13.69
				c-0.3-3.73-0.73-7.5-0.87-11.28c-0.57-14.78-1.09-29.56-1.56-44.35c-0.31-9.69-0.64-19.38-0.75-29.08
				c-0.16-14.65-0.46-29.32-0.07-43.96C110.36,383.17,111.54,368.17,112.38,353.16z"/>
			<path class="st6" d="M257.56,237.33c-0.92,4.33,0.39,8.05,3.12,11.39c1.7,2.07,1.44,3.56-0.84,5.32
				c-11.28,8.71-24.36,13.35-37.89,16.88c-18.46,4.82-37.29,7.44-56.31,8.59c-5.82,0.35-11.69-0.25-17.5,0.14
				c-5.28,0.36-10.51,1.47-15.77,2.25c-2.83-0.15-5.73-0.75-8.48-0.34c-5.45,0.82-10.81,2.19-16.21,3.34
				c3.41-6.12,7.34-11.63,14.81-13.27c6.1-1.34,12.25-2.57,18.24-4.31c2.04-0.59,4.48-2.2,5.34-4.01c3.06-6.46,3.05-6.68,10.24-6.87
				c1.5-0.04,2.99-0.39,4.49-0.59c0.85,0.2,1.69,0.56,2.54,0.58c21.09,0.54,41.31-3.67,60.84-11.4c2.14-0.85,3.9-2.65,5.84-4.02
				c2.64,6.4,4.73,7.41,11.05,4.53c4.62-2.1,8.97-4.77,13.48-7.13C255.47,237.92,256.54,237.69,257.56,237.33z"/>
			<path class="st7" d="M175.35,315.59c-5.55,11.98-15.54,17.19-28.15,18.37c-11.24,1.06-22.48,2.26-33.74,3.06
				c-9.85,0.7-17.41-2.78-20.83-12.79c-0.14-0.4-0.74-0.65-1.13-0.96c1.77-5.83,3.51-11.66,5.33-17.48
				c0.32-1.01,0.98-1.91,1.48-2.87c0.64-0.39,1.45-0.64,1.92-1.18c6.9-7.98,16.39-8.62,25.91-9.19c1.51-0.54,3.02-1.08,4.54-1.62
				c1.3,0.28,2.59,0.71,3.9,0.82c6.9,0.56,13.8,1.05,20.7,1.56c4.87,3.19,9.81,6.28,14.58,9.61c3.31,2.31,5.28,5.45,4.71,9.79
				C174.45,313.64,175.07,314.64,175.35,315.59z M145.24,328.87c4.76-1.36,9.4-2.01,13.41-3.97c7.62-3.72,8.05-13.74,1.15-18.58
				c-9.06-6.36-24.2-3.7-28.67,9.23c-1.2,3.48-0.2,7.71,3.05,9.38C137.59,326.67,141.43,327.55,145.24,328.87z"/>
			<path class="st2" d="M230,241.01c-1.94,1.36-3.7,3.17-5.84,4.02c-19.53,7.73-39.75,11.94-60.84,11.4
				c-0.85-0.02-1.69-0.38-2.54-0.58c1.04-1.68,2.56-3.24,3-5.06c0.74-3.11,2.22-5.21,5.13-6.54c16.63-7.64,33.83-12.34,52.35-9.99
				C225.35,234.78,229.48,235.67,230,241.01z"/>
			<path class="st3" d="M474.04,325.84c6.71-1.18,12.91-2.37,19.14-3.32c6.77-1.03,13.59-1.73,20.36-2.79
				c2.03-0.32,2.88,0.16,3.1,2.13c0.38,3.4,1.02,6.79,1.21,10.2c0.56,9.64,0.94,19.28,1.43,29.69c-7.77,1.06-15.02,2.02-22.25,3.03
				c-4.04,0.56-8.13,1.47-11.67-1.48c-1.02-0.85-2.25-1.9-2.57-3.08C479.82,348.95,477.02,337.63,474.04,325.84z M493.6,355.52
				c-0.75-2.78-1.51-5.57-2.26-8.36c-3.02,0.93-5.52,1.69-7.38,2.26c1.25,4.44,2.21,7.85,3.17,11.25c0.41-0.05,0.83-0.09,1.24-0.14
				c0-3.09,0-6.18,0-9.27c0.31-0.04,0.63-0.08,0.94-0.12c0.66,2.99,1.31,5.97,1.97,8.96c0.51-0.02,1.02-0.04,1.53-0.06
				c0.24-1.53,0.49-3.06,0.73-4.59c0.38,0.46,0.67,1.1,1.15,1.34c1.25,0.62,2.71,1.64,3.87,1.41c0.89-0.18,1.93-1.99,2.01-3.14
				c0.13-1.81-0.08-3.88-0.9-5.45c-0.61-1.16-2.42-2.28-3.7-2.29c-0.79,0-1.96,2.02-2.29,3.31
				C493.28,352.16,493.59,353.88,493.6,355.52z M481.63,334c-0.51-3.78,2.13-3.86,5.04-3.81c0.74,0.01,1.62-0.48,2.16-1.01
				c0.18-0.17-0.32-1.5-0.81-1.81c-3.31-2.1-9.46,0.65-9.53,4.61c-0.06,3.18,0.78,6.57,2.07,9.49c0.58,1.32,3.3,2.53,4.92,2.39
				c3.88-0.33,7.3-2.37,11.64-1.97c4.29,0.39,6.12-3.78,6.69-7.77c1.71,0,3.11,0.09,4.5-0.02c1.4-0.11,2.77-0.43,4.16-0.66
				c0.11,0.43,0.21,0.85,0.32,1.28c-2.07,0.58-4.18,1.04-6.18,1.8c-0.74,0.28-1.2,1.28-1.8,1.95c0.72,0.38,1.5,1.18,2.14,1.07
				c2.25-0.37,4.86-0.5,6.53-1.77c1.38-1.05,2.24-3.6,2.2-5.46c-0.06-2.52-2.45-2.49-4.44-2.21c-1.63,0.23-3.24,0.56-4.86,0.85
				c-0.28-0.22-0.57-0.44-0.85-0.65c0.59-0.87,0.99-2.1,1.81-2.53c1.32-0.69,2.97-0.74,4.38-1.3c0.67-0.27,1.12-1.09,1.67-1.66
				c-0.65-0.49-1.25-1.35-1.95-1.43c-3.84-0.42-8.22,2.26-9.71,5.76c-3.93-3.35-6.19-3.98-8.84-2.46c-3.33,1.9-4.34,6.19-2.86,12.64
				c-2.52-0.11-5.35,3.65-7.29-0.23c1.71-1.54,3.07-2.75,4.43-3.97C485.49,334.75,483.79,334.42,481.63,334z M500.39,350.76
				c1.38,2.4,2.26,4.47,3.66,6.09c0.44,0.51,3.2,0.08,3.32-0.36c0.6-2.09,1.29-4.52,0.71-6.46c-0.49-1.64-2.68-2.78-4.12-4.14
				C502.86,347.4,501.76,348.9,500.39,350.76z M517.62,350.64c0-0.38,0.02-0.77,0-1.15c-0.29-3.86-1.97-5.13-5.75-4.85
				c-4.26,0.31-2.7,2.98-2.37,5.23c0.13,0.88,0.25,1.78,0.27,2.67c0.07,2.94,1.57,3.62,4.28,3.08
				C516.92,355.03,517.77,353.26,517.62,350.64z"/>
			<path class="st2" d="M126.14,292.57c-9.52,0.56-19.01,1.2-25.91,9.19c-0.47,0.54-1.27,0.79-1.92,1.18
				c3.12-6.01,6.24-12.02,9.35-18.03c5.4-1.15,10.76-2.52,16.21-3.34c2.75-0.41,5.65,0.2,8.48,0.34c-1.11,0.81-2.13,1.78-3.34,2.41
				C125.42,286.2,123.42,288.53,126.14,292.57z"/>
			<path class="st2" d="M380.44,191.21c-3.94-0.26-7.88-0.51-11.82-0.77c1.74-2.41,3.49-4.81,4.94-6.81
				C376.03,186.35,378.24,188.78,380.44,191.21z"/>
			<path class="st2" d="M319.16,190.44c-2.78,0.49-5.55,0.99-8.33,1.48c0.5-2.61,0.99-5.21,1.73-9.1
				C315.16,185.82,317.16,188.13,319.16,190.44z"/>
			<path class="st6" d="M112.38,353.16c-0.84,15.01-2.02,30.01-2.42,45.03c-0.4,14.64-0.09,29.31,0.07,43.96
				c0.1,9.69,0.44,19.39,0.75,29.08c0.48,14.78,0.99,29.57,1.56,44.35c0.15,3.78,0.58,7.54,0.87,11.28
				c-9.24,1.17-16.72-5.27-17.12-13.69c-0.85-17.81-2.17-35.6-2.89-53.42c-0.61-15.05-0.79-30.12-0.9-45.18
				c-0.13-17-0.09-34.01,0.11-51.01c0.07-5.58,0.85-11.15,1.31-16.72c0.18-2.23,1.01-2.92,3.51-2.49c5,0.86,10.09,1.13,15.53,1.69
				c0,1.47,0,3.06,0,4.65C112.63,351.51,112.51,352.34,112.38,353.16z"/>
			<path class="st1" d="M277.22,248.96c-1.02,7.97-0.05,9.6,7.05,10.84c5.87,1.03,11.84,1.87,17.79,1.98
				c24.8,0.45,49.61,0.92,74.41,0.69c10.51-0.09,21-1.91,31.5-2.88c3.73-0.34,5.54-2,4.98-5.95c-0.57-3.98-0.89-7.99-1.32-11.99
				c0.31-0.07,0.67-0.26,0.76-0.17c5.97,6.26,11.99,12.47,17.76,18.91c0.8,0.9,0.33,2.95,0.41,4.47c0.01,0.22-0.25,0.45-0.32,0.69
				c-2.04,7.16-6.7,9.36-14.13,9.53c-19.35,0.44-38.67,1.92-58.01,2.86c-8.54,0.41-17.12,1.06-25.63,0.66
				c-19.8-0.93-39.66-1.48-59.14-5.98c-6.91-1.6-9.02-6.92-4.69-12.13C271.45,257.11,273.92,253.42,277.22,248.96z"/>
			<path class="st1" d="M452.97,367.55c-24.33-36.08-57.54-57.12-101.57-58.81c-43.96-1.69-78.97,16.22-106.04,50.5
				c16.43-29.85,56.93-61.64,109.16-58.16C403.99,304.38,440.78,339.24,452.97,367.55z"/>
			<path class="st5" d="M206.76,314.04c8.86,0.04,15.51,6.69,15.45,15.44c-0.04,7.43-7.44,13.81-15.94,13.76
				c-7.57-0.04-13.42-6.57-13.22-15.29C193.23,320.06,197.97,313.4,206.76,314.04z M206.51,319.42c-5.18-0.01-8.12,3.03-8.15,8.42
				c-0.03,5.45,3.71,9.96,8.32,10.03c5.13,0.08,10.2-4.37,10.16-8.92C216.79,323.63,212.25,319.43,206.51,319.42z"/>
			<path class="st2" d="M331.57,250.16c-0.6-4.01-4.24-0.59-6.02-2.71c2.16-0.64,4.15-1.48,6.21-1.8c2.84-0.43,4.98,0.65,5.86,3.66
				c0.92,3.16,1.95,6.29,3.29,10.58c-2.66-0.77-4.51-1.42-6.4-1.78c-0.82-0.15-1.79,0.2-2.62,0.51c-4.49,1.67-7.17,0.97-10.04-2.74
				c-4.79,4.27-10.35,4.63-16.13,2.85c-3.55-1.09-5.85-3.51-5.96-7.56c-0.11-4.15,2.38-6.29,5.81-7.65
				c4.97-1.98,14.31-1.09,16.51,3.81c-1.89,0.84-3.78,1.69-6.7,2.99c1.11-2.11,1.65-3.15,2.33-4.45c-2.93-1.42-6.05-1.81-8.05,0.66
				c-1.4,1.73-2.2,4.77-1.78,6.94c0.59,3.08,3.79,4.33,6.68,3.83c2.59-0.44,6.04-1.36,7.24-3.25c2.5-3.91,5.67-3.78,9.3-3.43
				c0.28,0.02,0.56,0.04,0.85,0.06C331.81,250.52,331.69,250.34,331.57,250.16z M327.02,254.78c1.89,1.12,2.85,2.13,3.8,2.12
				c0.87-0.01,1.72-1.13,2.58-1.76c-0.83-0.8-1.57-2.07-2.52-2.26C330.02,252.73,328.94,253.77,327.02,254.78z"/>
			<path class="st5" d="M480.54,373.17c6.41,0.54,15.57,9.42,17.52,18.73c1.38,6.57,0.53,12.98-2.93,18.89
				c-0.17-0.68-0.59-1.4-0.48-2.02c1.68-9.5-1.97-18.17-10.32-22.44c-4.39-2.25-9.39-3.32-14.3-4.99c-0.46-3.7,2.09-6.94,6.16-7.4
				C477.66,373.77,479.09,373.43,480.54,373.17z"/>
			<path class="st4" d="M480.54,373.17c-1.45,0.26-2.88,0.6-4.34,0.77c-4.07,0.46-6.62,3.7-6.16,7.4c4.91,1.67,9.9,2.75,14.3,4.99
				c8.35,4.27,11.99,12.94,10.32,22.44c-0.11,0.63,0.31,1.35,0.48,2.02c-2.38,9.09-12.35,18.92-22.04,21.36
				c-0.08-1.39-0.16-2.69-0.24-3.99c2.08-0.32,4.39-0.17,6.2-1.05c6.02-2.92,9.99-7.78,11.87-14.23
				c4.17-14.39-5.81-28.58-19.72-28.25c-3.47,0.08-4.2,1.62-3.5,4.59c0.61,2.6,1.19,5.2,1.78,7.81c-0.39-0.04-0.77-0.08-1.16-0.13
				c-1.15-3.78-2.31-7.55-3.43-11.33c-1.85-6.28,2.23-13.25,8.67-14.05C475.78,371.25,478.2,372.57,480.54,373.17z"/>
			<path class="st1" d="M469.47,397.03c-0.59-2.6-1.16-5.21-1.78-7.81c-0.7-2.97,0.03-4.5,3.5-4.59
				c13.91-0.33,23.9,13.86,19.72,28.25c-1.87,6.46-5.84,11.31-11.87,14.23c-1.81,0.88-4.12,0.73-6.2,1.05
				c0.01-0.4,0.01-0.8,0.02-1.19c0.25-1.37,0.89-2.79,0.7-4.09C472.31,414.24,470.86,405.64,469.47,397.03z M476.89,424.99
				c8.46-3.24,13.53-12.26,12.06-22.06c-1.31-8.71-8.9-15.71-18.13-15.61C472.84,399.83,474.85,412.32,476.89,424.99z"/>
			<path class="st2" d="M390.53,258.79c-2.01,0-3.63,0-5.61,0c-0.2-3.35-0.4-6.67-0.6-10c-0.51-0.04-1.02-0.09-1.53-0.13
				c-0.26,3.46-0.51,6.92-0.78,10.56c-1.83-0.13-3.45-0.24-5.02-0.35c-1.79-3.59,1.74-8.24-2.58-11.29
				c2.51-1.14,4.73-3.11,7.76-0.85c0.65,0.49,2.34-0.3,3.51-0.63c3.57-1.01,4.79-0.2,4.85,3.4
				C390.57,252.53,390.53,255.57,390.53,258.79z"/>
			<path class="st2" d="M348.27,248.79c0,3.32,0,6.64,0,10.2c-2.28,0-4,0-5.61,0c-1.93-3.65,1.45-8.27-2.54-11.45
				c2.46-1.16,4.78-3.16,7.91-0.67c0.63,0.5,2.54-0.69,3.88-0.99c2.6-0.58,4.26,0.04,4.15,3.17c-0.11,3.17-0.02,6.34-0.02,9.72
				c-1.88,0-3.48,0-5.4,0c-0.2-3.34-0.41-6.73-0.61-10.13C349.44,248.69,348.85,248.74,348.27,248.79z"/>
			<path class="st2" d="M363.66,246.5c4.21-1.45,8.25,0.51,9.48,4.6c1.19,3.95-0.78,6.98-5.26,8.1c-4.43,1.1-8.5-0.83-9.67-4.6
				c-1.2-3.84,0.5-7.04,4.47-8.34c0.29-0.1,0.68,0.13,1.03,0.2c-0.09,6.29,1.72,11.09,4.41,11.02c-0.63-2.61-1.07-5.24-1.94-7.71
				C365.74,248.53,364.52,247.58,363.66,246.5z"/>
			<path class="st4" d="M155.28,293.33c-6.9-0.51-13.8-0.99-20.7-1.56c-1.31-0.11-2.6-0.54-3.9-0.82
				c9.58-6.77,23.85-4.69,32.14,2.38C160,293.33,157.64,293.33,155.28,293.33z"/>
			<path class="st5" d="M469.47,397.03c1.39,8.61,2.84,17.22,4.1,25.85c0.19,1.3-0.45,2.73-0.7,4.09c-0.39-3.33-0.66-6.67-1.18-9.98
				c-1.06-6.71-2.25-13.39-3.38-20.08C468.7,396.94,469.09,396.98,469.47,397.03z"/>
			<path class="st1" d="M456.64,372.84c-0.21,0.23-0.36,0.38-0.5,0.53c-0.24-0.26-0.47-0.52-0.71-0.78c0.23-0.2,0.46-0.41,0.69-0.61
				C456.29,372.27,456.47,372.56,456.64,372.84z"/>
			<path class="st8" d="M345.28,543.61c-38.19,0.5-75.6-30.03-75.77-75.59c-0.16-43.53,34.3-76.17,76.02-76.23
				c41.2-0.05,76.16,32.01,76.15,76.09C421.67,513.27,384.23,544.41,345.28,543.61z M418.27,468.48
				c0.89-40.67-31.7-73.51-72.59-73.59c-40.22-0.08-72.24,31.84-72.9,71.88c-0.68,40.74,32.65,72.1,69.08,73.81
				C385.41,542.62,419.13,506.55,418.27,468.48z"/>
			<path class="st5" d="M145.24,328.87c-3.82-1.32-7.66-2.2-11.06-3.94c-3.25-1.67-4.25-5.9-3.05-9.38
				c4.46-12.93,19.61-15.59,28.67-9.23c6.9,4.85,6.47,14.86-1.15,18.58C154.65,326.86,150,327.51,145.24,328.87z"/>
			<path class="st2" d="M481.63,334c2.16,0.42,3.86,0.75,5.56,1.08c-1.36,1.22-2.72,2.44-4.43,3.97c1.94,3.88,4.77,0.12,7.29,0.23
				c-1.48-6.45-0.47-10.74,2.86-12.64c2.65-1.52,4.92-0.89,8.84,2.46c1.49-3.5,5.87-6.18,9.71-5.76c0.69,0.08,1.3,0.93,1.95,1.43
				c-0.55,0.57-1,1.39-1.67,1.66c-1.41,0.56-3.06,0.61-4.38,1.3c-0.82,0.43-1.22,1.66-1.81,2.53c0.28,0.22,0.57,0.44,0.85,0.65
				c1.62-0.29,3.23-0.62,4.86-0.85c1.99-0.28,4.38-0.31,4.44,2.21c0.04,1.86-0.83,4.42-2.2,5.46c-1.67,1.27-4.28,1.4-6.53,1.77
				c-0.64,0.1-1.42-0.69-2.14-1.07c0.59-0.67,1.06-1.66,1.8-1.95c2-0.76,4.11-1.22,6.18-1.8c-0.11-0.43-0.21-0.85-0.32-1.28
				c-1.39,0.23-2.77,0.54-4.16,0.66c-1.39,0.11-2.79,0.02-4.5,0.02c-0.57,4-2.4,8.17-6.69,7.77c-4.34-0.4-7.76,1.64-11.64,1.97
				c-1.63,0.14-4.34-1.07-4.92-2.39c-1.29-2.92-2.12-6.31-2.07-9.49c0.07-3.96,6.23-6.71,9.53-4.61c0.5,0.32,0.99,1.64,0.81,1.81
				c-0.55,0.53-1.42,1.03-2.16,1.01C483.76,330.14,481.12,330.22,481.63,334z M491,334.69c2.01,1.93,3.13,3.85,4.67,4.29
				c2.19,0.64,5.26-2.46,4.47-4.45c-0.8-1.99-2.76-3.51-4.21-5.23C494.46,330.89,493,332.49,491,334.69z"/>
			<path class="st2" d="M493.54,355.45c-0.24,1.53-0.49,3.06-0.73,4.6c-0.51,0.02-1.02,0.04-1.53,0.06
				c-0.66-2.99-1.31-5.97-1.97-8.96c-0.31,0.04-0.63,0.08-0.94,0.12c0,3.09,0,6.18,0,9.27c-0.41,0.05-0.83,0.09-1.24,0.14
				c-0.96-3.4-1.92-6.81-3.17-11.25c1.86-0.57,4.36-1.34,7.38-2.26c0.75,2.79,1.51,5.58,2.26,8.36L493.54,355.45z"/>
			<path class="st2" d="M500.39,350.76c1.36-1.86,2.47-3.36,3.57-4.87c1.44,1.36,3.63,2.49,4.12,4.14c0.58,1.94-0.11,4.37-0.71,6.46
				c-0.13,0.45-2.88,0.88-3.32,0.36C502.65,355.23,501.77,353.16,500.39,350.76z"/>
			<path class="st2" d="M493.6,355.52c-0.01-1.64-0.32-3.36,0.08-4.89c0.33-1.29,1.5-3.31,2.29-3.31c1.28,0.01,3.09,1.13,3.7,2.29
				c0.82,1.56,1.04,3.64,0.9,5.45c-0.09,1.15-1.13,2.96-2.01,3.14c-1.15,0.23-2.61-0.78-3.87-1.41c-0.49-0.24-0.77-0.88-1.15-1.34
				C493.54,355.45,493.6,355.52,493.6,355.52z"/>
			<path class="st2" d="M517.62,350.64c0.15,2.62-0.7,4.4-3.57,4.98c-2.71,0.55-4.21-0.14-4.28-3.08c-0.02-0.89-0.14-1.78-0.27-2.67
				c-0.33-2.25-1.89-4.92,2.37-5.23c3.78-0.28,5.45,0.99,5.75,4.85C517.64,349.87,517.62,350.26,517.62,350.64z M512.41,353.15
				c3.43,0.03,3.19-2.17,2.64-3.91c-0.32-1-1.77-1.64-2.71-2.45c-0.25,0.28-0.51,0.56-0.76,0.84
				C511.84,349.37,512.1,351.1,512.41,353.15z"/>
			<path class="st4" d="M206.51,319.42c5.73,0.02,10.28,4.21,10.32,9.53c0.04,4.55-5.03,9-10.16,8.92
				c-4.61-0.07-8.35-4.58-8.32-10.03C198.39,322.44,201.34,319.4,206.51,319.42z"/>
			<path class="st3" d="M327.02,254.78c1.93-1.01,3.01-2.05,3.85-1.89c0.95,0.18,1.69,1.46,2.52,2.26
				c-0.86,0.63-1.71,1.75-2.58,1.76C329.86,256.91,328.9,255.9,327.02,254.78z"/>
			<path class="st3" d="M331.57,250.16c0.12,0.18,0.24,0.36,0.36,0.54c-0.28-0.02-0.56-0.04-0.85-0.06
				C331.24,250.48,331.4,250.32,331.57,250.16z"/>
			<path class="st3" d="M476.89,424.99c-2.04-12.67-4.05-25.16-6.07-37.67c9.22-0.1,16.82,6.9,18.13,15.61
				C490.43,412.73,485.36,421.75,476.89,424.99z"/>
			<path class="st3" d="M363.66,246.5c0.86,1.08,2.08,2.03,2.51,3.26c0.87,2.48,1.31,5.1,1.94,7.71c-2.69,0.07-4.5-4.73-4.41-11.02
				C363.7,246.46,363.66,246.5,363.66,246.5z"/>
			<path class="st9" d="M418.27,468.48c0.86,38.07-32.87,74.14-76.42,72.1c-36.43-1.7-69.76-33.07-69.08-73.81
				c0.67-40.05,32.69-71.96,72.9-71.88C386.57,394.97,419.16,427.81,418.27,468.48z M289.96,453.39
				c0.52,11.25,4.72,20.38,12.65,28.1c13.52,13.16,36.81,13.32,50.36,0.14c12.31-11.98,15.56-29.13,8.52-44.99
				c-6.53-14.71-24.3-23.97-39.84-20.56c-4.7,1.03-9.2,3.14-13.93,3.8c-7.3,1.01-11.98,4.8-13.3,11.98c-0.5,2.74-1,5.49-1.57,8.21
				C291.93,444.52,290.93,448.95,289.96,453.39z"/>
			<path class="st3" d="M491,334.69c2-2.19,3.46-3.79,4.92-5.39c1.45,1.73,3.42,3.25,4.21,5.23c0.8,1.99-2.28,5.09-4.47,4.45
				C494.12,338.53,493,336.62,491,334.69z"/>
			<path class="st3" d="M512.41,353.15c-0.31-2.05-0.57-3.78-0.84-5.51c0.25-0.28,0.51-0.56,0.76-0.84c0.94,0.8,2.39,1.45,2.71,2.45
				C515.6,350.98,515.85,353.19,512.41,353.15z"/>
			<path class="st0" d="M289.96,453.39c0.97-4.44,1.96-8.87,2.9-13.31c0.57-2.73,1.07-5.47,1.57-8.21
				c1.32-7.19,6.01-10.97,13.3-11.98c4.73-0.65,9.23-2.77,13.93-3.8c15.53-3.41,33.3,5.84,39.84,20.56
				c7.04,15.86,3.79,33.01-8.52,44.99c-13.54,13.18-36.84,13.02-50.36-0.14C294.69,473.77,290.48,464.64,289.96,453.39z"/>
		</g>
	</g>
</g>
<g id="Layer_2">
</g>
</svg>
